# xmcd
#
# Track frame offsets:
#  150
#  21337
#  39497
#  60587
#  80600
#  97380
#  116615
#  134597
#  149350
#  171090
#
# Disc length: 2581 seconds
#
# Revision: 0
# Processed by: cddbd v1.5.2PL0 Copyright (c) Steve Scherf et al.
# Submitted via: AltoMP3_Maker 3.0
#
DISCID=910a130a
DTITLE=Eva Cassidy - Songbird
DYEAR=1900
DGENRE=
TTITLE0=Fields of Gold
TTITLE1=Wade in the Water
TTITLE2=Autumn Leaves
TTITLE3=Wayfaring Stranger
TTITLE4=Songbird
TTITLE5=Time Is A Healer
TTITLE6=I Know You By Heart
TTITLE7=People Get Ready
TTITLE8=Oh, Had I A Golden Thread
TTITLE9=Over the Rainbow
EXTD=
EXTT0=
EXTT1=
EXTT2=
EXTT3=
EXTT4=
EXTT5=
EXTT6=
EXTT7=
EXTT8=
EXTT9=
PLAYORDER=
